<svg xmlns="http://www.w3.org/2000/svg" width="860" height="530" viewBox="0 0 860 530" role="img" aria-labelledby="title desc">
<title id="title">Dealership Cross-Sell Propensity — model results and source explorer</title>
<desc id="desc">Dealership Cross-Sell Propensity. Source inventory at 56a1e0d6f569fe9a93ae5c1c0b1087f1724a8a25. SQL EDA: 1 files; Model: 1 files; Scores: 1 files. Tableau Public dashboard linked. Results quoted from the project README, not recomputed: Roc-Auc: 0.857; Top-Decile Lift: 3.2×; Reached · Top 30% Called: 79.0%; Lift · Top 30% Called: 2.6×. Project checklist: 4/4 done · SQL EDA · Model · Tableau dashboard · Results and business impact. Daily commits, default branch, all authors: [0, 0, 0, 0, 0, 0, 0, 0, 0, 0, 0, 0, 0, 0, 0, 0, 0, 0, 0, 0, 0, 0, 0, 0, 0, 0, 0, 0, 0, 0, 0, 0, 0, 0, 0, 0, 0, 0, 0, 0, 0, 0, 0, 0, 0, 0, 0, 0, 0, 0, 0, 0, 0, 0, 0, 0, 0, 0, 0, 0, 0, 0, 0, 0, 0, 0, 0, 0, 0, 0, 0, 0, 0, 0, 0, 0, 0, 0, 0, 0, 0, 0, 0, 0, 3, 0, 0, 0, 0, 0]. Fetched 2026-10-06T09:30:32Z.</desc>
<style>
:root { color-scheme: light dark; --bg:#ffffff; --panel:#f6f8fa; --ink:#24292f; --muted:#59636e; --line:#d1d9e0; --accent:#16733c; --cyan:#0969da; --amber:#8a5700; --portrait:#353b43; --track:#e5e9ee; --p0:#ebedf0; --p1:#c6e8cb; --p2:#9bd7a4; --p3:#58b96b; --p4:#2a9345; --p5:#167036; }
@media (prefers-color-scheme: dark) {
 :root { --bg:#0d1117; --panel:#161b22; --ink:#e6edf3; --muted:#919ba7; --line:#30363d; --accent:#69f0a0; --cyan:#79c0ff; --amber:#e3b341; --portrait:#c9d1d9; --track:#21262d; --p0:#161b22; --p1:#0e4429; --p2:#006d32; --p3:#26a641; --p4:#39d353; --p5:#69f0a0; }
}
text { font-family:'Cascadia Code','SFMono-Regular',Consolas,'Liberation Mono',monospace; font-size:12px; fill:var(--ink); }
.bg {fill:var(--bg);stroke:var(--line)} .panel {fill:var(--panel)}
.ink {fill:var(--ink)} .muted {fill:var(--muted)} .accent {fill:var(--accent)} .cyan {fill:var(--cyan)} .amber {fill:var(--amber)} .portrait {fill:var(--portrait)}
.line {stroke:var(--line)} .track {fill:var(--track)} .small {font-size:10px} .tiny {font-size:9px} .large {font-size:22px;font-weight:600} .bold {font-weight:600}
.p0 {fill:var(--p0)} .p1 {fill:var(--p1)} .p2 {fill:var(--p2)} .p3 {fill:var(--p3)} .p4 {fill:var(--p4)} .p5 {fill:var(--p5)}
.unknown {fill:var(--bg);stroke:var(--line);stroke-dasharray:2 2}

:root{--violet:#6f42c1;--wash:#eef8f2;--v-wash:#f5f0fc}
@media(prefers-color-scheme:dark){:root{--violet:#c8a5ff;--wash:#11251c;--v-wash:#211a30}}
.violet{fill:var(--violet)} .wash{fill:var(--wash)} .v-wash{fill:var(--v-wash)}
.display{font-family:Arial,Helvetica,sans-serif;font-weight:700;letter-spacing:-.7px}
.outline{fill:none;stroke:var(--line)}
.trace{fill:none;stroke:var(--accent);stroke-width:2.3;stroke-linejoin:round;stroke-linecap:round}
.xsell .trace{stroke:var(--violet)} .xsell .area{fill:var(--violet)}
.area{fill:var(--accent);opacity:.08} .guide{fill:none;stroke:var(--line);stroke-dasharray:3 5}
.connector{fill:none;stroke:var(--line);stroke-width:1.5}

@keyframes enter {from {opacity:0;transform:translateY(7px)} to {opacity:1;transform:translateY(0)}}
@keyframes drop {from {opacity:0;transform:translateY(-12px)} to {opacity:1;transform:translateY(0)}}
.enter {animation:enter .55s ease-out both}
.drop {animation:drop .35s ease-out both}

@media (prefers-reduced-motion: reduce) {
 * {animation:none !important} .wipe {clip-path:none !important}
 .tag-cycle {display:none} .tag-static {display:inline}
}
</style>
<rect x="0.5" y="0.5" width="859" height="529" rx="12" class="bg" /><text x="22" y="27" class="accent bold" >$</text><text x="38" y="27" class="muted small" >showcase --project dealership-crosssell-propensity</text><text x="838" y="27" class="muted tiny" text-anchor="end">01 / DATA SCIENCE</text><path d="M20 42H840" class="line"/><g class="xsell"><text x="28" y="75" class="violet bold" style="font-size:10px" >SQL × MACHINE LEARNING × BI</text><text x="28" y="112" class="display" style="font-size:30px" >Dealership Cross-Sell Propensity</text><text x="28" y="138" class="muted" style="font-size:12px" >Too many customers, too few calls. Who goes first?</text><rect x="675" y="67" width="157" height="29" rx="14" class="v-wash" /><text x="753" y="86" class="violet bold" style="font-size:9px" text-anchor="middle">PROPENSITY MODEL</text><rect x="28" y="166" width="183" height="78" rx="8" class="v-wash" /><text x="42" y="188" class="violet bold" style="font-size:10px" >01 / SQL EDA</text><text x="42" y="220" class="display" style="font-size:25px" >1</text><text x="73" y="220" class="muted" style="font-size:10px" >query files</text><defs><clipPath id="stage-0" clipPathUnits="userSpaceOnUse"><rect x="212" y="196" width="22" height="20"><animate attributeName="width" values="0;22" keyTimes="0;1" begin="0s" dur="0.800s" repeatCount="1" fill="freeze"/></rect></clipPath></defs><g class="wipe" clip-path="url(#stage-0)"><path d="M216 205h13l-4 -4m4 4l-4 4" class="connector"/></g><rect x="235" y="166" width="183" height="78" rx="8" class="v-wash" /><text x="249" y="188" class="violet bold" style="font-size:10px" >02 / MODEL</text><text x="249" y="220" class="display" style="font-size:25px" >1</text><text x="280" y="220" class="muted" style="font-size:10px" >notebooks</text><defs><clipPath id="stage-1" clipPathUnits="userSpaceOnUse"><rect x="419" y="196" width="22" height="20"><animate attributeName="width" values="0;0;22" keyTimes="0;0.15789;1" begin="0s" dur="0.950s" repeatCount="1" fill="freeze"/></rect></clipPath></defs><g class="wipe" clip-path="url(#stage-1)"><path d="M423 205h13l-4 -4m4 4l-4 4" class="connector"/></g><rect x="442" y="166" width="183" height="78" rx="8" class="v-wash" /><text x="456" y="188" class="violet bold" style="font-size:10px" >03 / SCORES</text><text x="456" y="220" class="display" style="font-size:25px" >1</text><text x="487" y="220" class="muted" style="font-size:10px" >scored exports</text><defs><clipPath id="stage-2" clipPathUnits="userSpaceOnUse"><rect x="626" y="196" width="22" height="20"><animate attributeName="width" values="0;0;22" keyTimes="0;0.27273;1" begin="0s" dur="1.100s" repeatCount="1" fill="freeze"/></rect></clipPath></defs><g class="wipe" clip-path="url(#stage-2)"><path d="M630 205h13l-4 -4m4 4l-4 4" class="connector"/></g><rect x="649" y="166" width="183" height="78" rx="8" class="v-wash" /><text x="663" y="188" class="violet bold" style="font-size:10px" >04 / TABLEAU</text><text x="663" y="220" class="display" style="font-size:25px" >↗</text><text x="694" y="220" class="muted" style="font-size:10px" >public dashboard</text><text x="28" y="264" class="muted" style="font-size:9px" >Repository structure at the shown commit · file presence does not certify execution</text><text x="28" y="295" class="violet bold" style="font-size:10px" >REPORTED RESULTS</text><rect x="28" y="306" width="209" height="50" rx="6" class="panel" /><text x="40" y="324" class="muted tiny" >ROC-AUC</text><text x="40" y="347" class="display violet" style="font-size:20px" >0.857</text><rect x="253" y="306" width="209" height="50" rx="6" class="panel" /><text x="265" y="324" class="muted tiny" >TOP-DECILE LIFT</text><text x="265" y="347" class="display violet" style="font-size:20px" >3.2×</text><rect x="28" y="364" width="209" height="50" rx="6" class="panel" /><text x="40" y="382" class="muted tiny" >REACHED · TOP 30% CALLED</text><text x="40" y="405" class="display violet" style="font-size:20px" >79.0%</text><rect x="253" y="364" width="209" height="50" rx="6" class="panel" /><text x="265" y="382" class="muted tiny" >LIFT · TOP 30% CALLED</text><text x="265" y="405" class="display violet" style="font-size:20px" >2.6×</text><text x="28" y="434" class="muted" style="font-size:9px" >Quoted from the project README at this commit · 76,222 held-out customers</text><rect x="486" y="281" width="346" height="153" rx="10" class="panel" /><text x="505" y="304" class="muted bold" style="font-size:10px" >90-DAY BUILD ACTIVITY</text><text x="813" y="304" class="bold" style="font-size:11px" text-anchor="end">3 commits</text><path d="M505 324.0H813" class="guide"/><path d="M505 353.5H813" class="guide"/><path d="M505 383.0H813" class="guide"/><defs><clipPath id="build-history" clipPathUnits="userSpaceOnUse"><rect x="503" y="321" width="312" height="65"><animate attributeName="width" values="0;312" keyTimes="0;1" begin="0s" dur="1.250s" repeatCount="1" fill="freeze"/></rect></clipPath></defs><g class="wipe" clip-path="url(#build-history)"><polygon points="505,383 505.0,383.0 508.46,383.0 511.92,383.0 515.38,383.0 518.84,383.0 522.3,383.0 525.76,383.0 529.22,383.0 532.69,383.0 536.15,383.0 539.61,383.0 543.07,383.0 546.53,383.0 549.99,383.0 553.45,383.0 556.91,383.0 560.37,383.0 563.83,383.0 567.29,383.0 570.75,383.0 574.21,383.0 577.67,383.0 581.13,383.0 584.6,383.0 588.06,383.0 591.52,383.0 594.98,383.0 598.44,383.0 601.9,383.0 605.36,383.0 608.82,383.0 612.28,383.0 615.74,383.0 619.2,383.0 622.66,383.0 626.12,383.0 629.58,383.0 633.04,383.0 636.51,383.0 639.97,383.0 643.43,383.0 646.89,383.0 650.35,383.0 653.81,383.0 657.27,383.0 660.73,383.0 664.19,383.0 667.65,383.0 671.11,383.0 674.57,383.0 678.03,383.0 681.49,383.0 684.96,383.0 688.42,383.0 691.88,383.0 695.34,383.0 698.8,383.0 702.26,383.0 705.72,383.0 709.18,383.0 712.64,383.0 716.1,383.0 719.56,383.0 723.02,383.0 726.48,383.0 729.94,383.0 733.4,383.0 736.87,383.0 740.33,383.0 743.79,383.0 747.25,383.0 750.71,383.0 754.17,383.0 757.63,383.0 761.09,383.0 764.55,383.0 768.01,383.0 771.47,383.0 774.93,383.0 778.39,383.0 781.85,383.0 785.31,383.0 788.78,383.0 792.24,383.0 795.7,324.0 799.16,383.0 802.62,383.0 806.08,383.0 809.54,383.0 813.0,383.0 813,383" class="area"/><polyline points="505.0,383.0 508.46,383.0 511.92,383.0 515.38,383.0 518.84,383.0 522.3,383.0 525.76,383.0 529.22,383.0 532.69,383.0 536.15,383.0 539.61,383.0 543.07,383.0 546.53,383.0 549.99,383.0 553.45,383.0 556.91,383.0 560.37,383.0 563.83,383.0 567.29,383.0 570.75,383.0 574.21,383.0 577.67,383.0 581.13,383.0 584.6,383.0 588.06,383.0 591.52,383.0 594.98,383.0 598.44,383.0 601.9,383.0 605.36,383.0 608.82,383.0 612.28,383.0 615.74,383.0 619.2,383.0 622.66,383.0 626.12,383.0 629.58,383.0 633.04,383.0 636.51,383.0 639.97,383.0 643.43,383.0 646.89,383.0 650.35,383.0 653.81,383.0 657.27,383.0 660.73,383.0 664.19,383.0 667.65,383.0 671.11,383.0 674.57,383.0 678.03,383.0 681.49,383.0 684.96,383.0 688.42,383.0 691.88,383.0 695.34,383.0 698.8,383.0 702.26,383.0 705.72,383.0 709.18,383.0 712.64,383.0 716.1,383.0 719.56,383.0 723.02,383.0 726.48,383.0 729.94,383.0 733.4,383.0 736.87,383.0 740.33,383.0 743.79,383.0 747.25,383.0 750.71,383.0 754.17,383.0 757.63,383.0 761.09,383.0 764.55,383.0 768.01,383.0 771.47,383.0 774.93,383.0 778.39,383.0 781.85,383.0 785.31,383.0 788.78,383.0 792.24,383.0 795.7,324.0 799.16,383.0 802.62,383.0 806.08,383.0 809.54,383.0 813.0,383.0" class="trace"/></g><text x="505" y="404" class="muted tiny" >07-09</text><text x="813" y="404" class="muted tiny" text-anchor="end">10-06 · peak 3/day</text><text x="505" y="423" class="muted" style="font-size:8.5px" >Default branch · all authors · Jakarta dates</text><path d="M28 450H832" class="line"/><text x="28" y="473" class="amber" style="font-size:10px" >Project checklist: 4/4 done · SQL EDA · Model · Tableau dashboard · Results and business impact</text><text x="28" y="492" class="muted" style="font-size:9px" >Latest workflow observation: No public workflow run returned</text><text x="28" y="514" class="muted tiny" >SOURCE 56a1e0d · 2026-09-30</text><text x="832" y="514" class="muted tiny" text-anchor="end">fetched 06 Oct 2026 · 16:30 WIB</text></g>
</svg>
