<svg xmlns="http://www.w3.org/2000/svg" width="180" height="52" viewBox="0 0 180 52" role="img" aria-labelledby="title desc">
<title id="title">epl-season-forecast commit sparkline</title>
<desc id="desc">epl-season-forecast: 0 commits, 2026-08-23 through 2026-09-19, default branch main, all authors, Asia/Jakarta. Peak 0 commits per day. Each line is scaled to its own peak. Synced 2026-09-19T14:24:51Z. Daily counts: 0, 0, 0, 0, 0, 0, 0, 0, 0, 0, 0, 0, 0, 0, 0, 0, 0, 0, 0, 0, 0, 0, 0, 0, 0, 0, 0, 0</desc>
<style>
:root { color-scheme: light dark; --bg:#ffffff; --panel:#f6f8fa; --ink:#24292f; --muted:#59636e; --line:#d1d9e0; --accent:#16733c; --cyan:#0969da; --amber:#8a5700; --portrait:#353b43; --track:#e5e9ee; --p0:#ebedf0; --p1:#c6e8cb; --p2:#9bd7a4; --p3:#58b96b; --p4:#2a9345; --p5:#167036; }
@media (prefers-color-scheme: dark) {
 :root { --bg:#0d1117; --panel:#161b22; --ink:#e6edf3; --muted:#919ba7; --line:#30363d; --accent:#69f0a0; --cyan:#79c0ff; --amber:#e3b341; --portrait:#c9d1d9; --track:#21262d; --p0:#161b22; --p1:#0e4429; --p2:#006d32; --p3:#26a641; --p4:#39d353; --p5:#69f0a0; }
}
text { font-family:'Cascadia Code','SFMono-Regular',Consolas,'Liberation Mono',monospace; font-size:12px; fill:var(--ink); }
.bg {fill:var(--bg);stroke:var(--line)} .panel {fill:var(--panel)}
.ink {fill:var(--ink)} .muted {fill:var(--muted)} .accent {fill:var(--accent)} .cyan {fill:var(--cyan)} .amber {fill:var(--amber)} .portrait {fill:var(--portrait)}
.line {stroke:var(--line)} .track {fill:var(--track)} .small {font-size:10px} .tiny {font-size:9px} .large {font-size:22px;font-weight:600} .bold {font-weight:600}
.p0 {fill:var(--p0)} .p1 {fill:var(--p1)} .p2 {fill:var(--p2)} .p3 {fill:var(--p3)} .p4 {fill:var(--p4)} .p5 {fill:var(--p5)}
.unknown {fill:var(--bg);stroke:var(--line);stroke-dasharray:2 2}
.spark-line{fill:none;stroke:var(--accent);stroke-width:1.6;stroke-linejoin:round;stroke-linecap:round}.spark-area{fill:var(--accent);opacity:.09}.spark-baseline{stroke-dasharray:2 3}
@keyframes enter {from {opacity:0;transform:translateY(7px)} to {opacity:1;transform:translateY(0)}}
@keyframes drop {from {opacity:0;transform:translateY(-12px)} to {opacity:1;transform:translateY(0)}}
.enter {animation:enter .55s ease-out both}
.drop {animation:drop .35s ease-out both}

@media (prefers-reduced-motion: reduce) {
 * {animation:none !important} .wipe {clip-path:none !important}
 .tag-cycle {display:none} .tag-static {display:inline}
}
</style>
<rect x="0.5" y="0.5" width="179" height="51" rx="6" class="bg" /><path d="M10 29H170" class="line spark-baseline"/><defs><clipPath id="history-reveal" clipPathUnits="userSpaceOnUse"><rect x="7" y="4" width="166" height="30"><animate attributeName="width" values="0;166" keyTimes="0;1" begin="0s" dur="1.100s" repeatCount="1" fill="freeze"/></rect></clipPath></defs><g class="wipe" clip-path="url(#history-reveal)"><polygon points="10,29 10.0,29.0 15.93,29.0 21.85,29.0 27.78,29.0 33.7,29.0 39.63,29.0 45.56,29.0 51.48,29.0 57.41,29.0 63.33,29.0 69.26,29.0 75.19,29.0 81.11,29.0 87.04,29.0 92.96,29.0 98.89,29.0 104.81,29.0 110.74,29.0 116.67,29.0 122.59,29.0 128.52,29.0 134.44,29.0 140.37,29.0 146.3,29.0 152.22,29.0 158.15,29.0 164.07,29.0 170.0,29.0 170,29" class="spark-area"/><polyline points="10.0,29.0 15.93,29.0 21.85,29.0 27.78,29.0 33.7,29.0 39.63,29.0 45.56,29.0 51.48,29.0 57.41,29.0 63.33,29.0 69.26,29.0 75.19,29.0 81.11,29.0 87.04,29.0 92.96,29.0 98.89,29.0 104.81,29.0 110.74,29.0 116.67,29.0 122.59,29.0 128.52,29.0 134.44,29.0 140.37,29.0 146.3,29.0 152.22,29.0 158.15,29.0 164.07,29.0 170.0,29.0" class="spark-line"/><circle cx="170.0" cy="29.0" r="2" class="accent"/></g><text x="10" y="44" class="muted" style="font-size:8.5px" >0 commits</text><text x="170" y="44" class="muted" style="font-size:8.5px" text-anchor="end">peak 0/d</text>
</svg>
